<svg width="603" height="441" viewBox="0 0 603 441" fill="none" xmlns="http://www.w3.org/2000/svg">
<path d="M492.296 29.051C482.5 33.745 455.596 49.751 451.896 52.551C445.796 57.051 443.296 66.151 446.196 73.151C447.996 77.551 530.396 220.351 533.596 224.551C537.396 229.751 541.396 231.751 548.196 231.751C553.896 231.751 554.796 231.351 573.696 220.551C584.496 214.351 594.896 207.751 596.996 205.751C601.496 201.351 603.396 195.151 601.996 189.551C601.396 187.451 602.6 118.3 578.5 76.5C553.5 24 541.5 8.375 532.5 2C520.5 -6.5 507 22.0054 492.296 29.051Z" fill="#143486"/>
<path d="M60 20L56.5 21C56.5 21 43.4336 32.5 22 86.5C-11.5 170.9 2.99999 231.3 5.99999 238.5C11 240 -3.60378 233.551 17.2962 241.851C41.9962 251.651 44.1962 252.251 49.6962 250.751C59.0962 248.251 57.6962 250.951 93.2962 161.451C127.596 75.051 127.596 75.051 124.396 67.451C122.096 61.851 117.696 59.251 95.0962 50.351C71.0962 40.951 67.5 19.5 60 20Z" fill="#0C266A"/>
<path d="M323.196 77.751C314.896 78.851 309.396 80.451 302.296 83.651C292.396 88.151 190.296 150.551 186.296 154.551C180.496 160.351 178.496 165.051 177.996 174.351C177.196 188.851 182.696 198.651 195.196 204.751C202.896 208.551 212.496 209.051 220.396 205.951C223.096 204.851 240.596 194.751 259.296 183.351C294.796 161.751 300.596 159.051 308.196 160.151C318.396 161.751 318.596 161.951 392.596 237.251L462.896 308.751L467.396 305.551C473.496 301.251 487.796 286.151 495.896 275.751C506.496 262.151 526.896 231.351 526.496 229.751C526.196 228.551 435.396 78.151 434.196 76.851C433.996 76.651 429.696 78.551 424.596 81.051C404.896 90.851 386.596 92.151 367.296 85.051C347.896 78.051 335.896 76.051 323.196 77.751Z" fill="#143486"/>
<path d="M238.296 84.751C229.996 86.051 217.796 90.251 208.396 94.951C187.096 105.651 160.696 106.651 138.396 97.751C134.496 96.251 130.996 95.251 130.696 95.551C130.396 95.951 117.096 128.351 101.296 167.551L72.4962 238.851L93.2962 266.251C104.696 281.451 114.496 294.051 114.996 294.351C115.496 294.651 119.296 291.851 123.396 288.051C127.496 284.351 133.196 279.851 136.096 278.251C140.796 275.551 142.096 275.251 150.296 275.251C157.696 275.251 159.996 275.651 163.596 277.551C174.396 283.251 180.596 292.451 181.696 304.051L182.296 311.151L192.696 301.351C205.496 289.251 209.396 287.251 220.296 287.251C226.996 287.251 229.196 287.651 233.996 290.051C243.896 294.851 250.596 304.451 251.496 314.951C251.796 318.151 252.196 320.751 252.396 320.751C252.596 320.751 255.096 318.951 257.996 316.751C278.096 301.451 306.196 313.251 309.396 338.351C310.196 345.051 307.996 352.751 303.296 359.751C301.396 362.651 299.796 365.151 299.796 365.351C299.796 365.551 301.696 365.751 304.096 365.751C306.496 365.751 310.696 366.551 313.396 367.451C320.096 369.751 329.796 379.451 332.096 386.151C334.396 392.851 334.296 403.151 331.896 408.451C329.596 413.451 329.996 413.751 338.596 413.751C351.896 413.651 360.996 404.351 360.996 390.751C360.996 381.651 359.096 378.651 342.296 361.751C326.596 345.951 324.796 343.151 327.996 339.951C330.896 337.051 333.496 339.051 354.296 359.651C377.196 382.551 379.296 384.051 389.296 383.951C396.496 383.951 401.196 382.051 405.396 377.551C410.296 372.451 412.096 368.151 412.096 361.251C412.096 351.751 409.896 348.651 387.196 325.651C375.996 314.351 366.796 304.451 366.796 303.651C366.796 301.051 369.896 297.751 372.196 297.751C373.996 297.751 381.196 304.551 400.196 324.151C428.796 353.551 430.896 355.151 441.296 355.051C450.996 354.951 458.796 349.751 462.496 341.051C464.396 336.351 464.096 327.051 461.796 321.951C460.396 318.851 448.596 306.051 421.596 278.451C345.496 200.651 318.296 173.251 314.796 171.051C310.496 168.251 301.296 167.951 296.696 170.351C294.996 171.151 279.196 180.651 261.496 191.451C243.796 202.251 226.996 212.151 224.096 213.451C216.396 217.051 206.796 217.551 198.096 214.951C176.796 208.451 164.396 186.551 170.596 166.151C172.796 158.851 176.796 152.051 181.496 147.551C182.996 146.051 204.996 132.351 230.196 117.051C255.396 101.751 276.096 88.751 276.196 88.251C276.496 85.451 249.996 82.951 238.296 84.751Z" fill="#0C266A"/>
<path d="M142.396 284.351C138.596 285.551 135.396 287.951 127.696 295.451C116.096 306.751 114.396 310.051 114.996 320.551C115.396 328.951 118.696 334.451 125.696 338.551C129.596 340.851 131.396 341.251 137.796 341.251C147.296 341.251 148.796 340.351 160.996 328.551C169.696 320.151 170.796 318.651 172.396 313.251C176.596 298.451 167.396 284.651 152.296 283.251C149.296 282.951 145.396 283.351 142.396 284.351Z" fill="#143486"/>
<path d="M215.796 295.751C213.896 296.051 210.796 297.151 208.996 298.151C204.096 300.751 168.096 335.551 166.196 339.651C163.596 344.851 163.196 353.851 165.196 359.151C169.896 371.551 184.796 377.251 196.996 371.451C202.796 368.751 238.096 335.151 240.796 329.751C249.896 311.951 235.196 291.851 215.796 295.751Z" fill="#143486"/>
<path d="M272.296 318.651C270.696 319.051 267.896 320.151 266.296 320.951C261.296 323.551 213.296 370.251 211.196 374.451C208.196 380.751 208.096 388.651 211.096 395.051C216.896 407.851 233.596 412.351 245.296 404.451C247.196 403.151 259.596 391.551 272.896 378.651C289.296 362.851 297.696 353.951 298.896 351.251C302.596 343.151 300.796 331.551 294.996 325.451C289.596 319.751 279.596 316.751 272.296 318.651Z" fill="#143486"/>
<path d="M294.696 375.051C289.696 376.951 288.696 377.751 274.996 390.751C261.596 403.551 258.996 407.251 258.096 414.651C257.196 422.351 259.296 428.351 264.896 433.951C269.896 438.951 274.396 440.751 281.796 440.751C289.396 440.751 295.096 437.051 309.796 422.851C317.196 415.651 323.496 409.751 323.796 409.751C324.096 409.751 324.396 408.751 324.396 407.451C324.496 406.251 324.896 402.651 325.296 399.551C326.596 389.951 321.896 380.851 313.496 376.551C308.396 374.051 299.496 373.251 294.696 375.051Z" fill="#143486"/>
</svg>
